<svg width="2421" height="775" viewBox="0 0 2421 775" fill="none" xmlns="http://www.w3.org/2000/svg">
<path d="M252.392 178.682L242.732 247.694H226.699L236.359 178.682H252.392ZM311.848 247.694H291.532L278.786 192.226C278.918 195.811 278.985 198.566 278.985 200.491C278.985 207.529 278.42 215.097 277.292 223.197L273.806 247.694H259.566L269.225 178.682H289.342L302.387 234.151C302.188 230.433 302.088 226.981 302.088 223.794C302.088 217.952 302.52 211.977 303.383 205.869L307.267 178.682H321.507L311.848 247.694ZM357.089 178.682C366.582 178.682 374.151 180.608 379.794 184.458C385.503 188.242 388.358 195.047 388.358 204.873C388.358 217.421 385.271 227.711 379.097 235.744C372.989 243.711 363.064 247.694 349.321 247.694H328.707L338.367 178.682H357.089ZM352.806 190.533L346.433 235.943H351.711C359.014 235.943 364.192 232.856 367.246 226.682C370.367 220.441 371.927 213.172 371.927 204.873C371.927 199.363 370.732 195.612 368.342 193.62C365.952 191.562 362.533 190.533 358.084 190.533H352.806ZM422.277 178.682L412.617 247.694H396.584L406.244 178.682H422.277ZM465.301 247.694L463.907 232.856H443.891L438.413 247.694H421.683L451.857 178.682H471.376L482.131 247.694H465.301ZM448.173 221.006H462.712L459.724 189.637L448.173 221.006ZM493.96 206.466L495.951 178.682H509.993L504.217 206.466H493.96ZM545.994 176.989C555.422 176.989 563.09 180.01 568.998 186.051L560.434 194.616C556.451 190.832 551.803 188.939 546.492 188.939C543.305 188.939 540.749 189.637 538.824 191.031C536.965 192.359 536.036 194.217 536.036 196.607C536.036 198.599 536.832 200.193 538.426 201.388C540.019 202.583 543.073 203.944 547.588 205.47C553.496 207.396 557.911 209.885 560.832 212.939C563.82 215.993 565.314 220.043 565.314 225.089C565.314 229.205 564.285 233.122 562.227 236.84C560.235 240.491 557.015 243.512 552.567 245.902C548.185 248.225 542.608 249.387 535.837 249.387C530.26 249.387 525.38 248.491 521.198 246.698C517.082 244.84 513.596 242.383 510.741 239.329L520.003 230.167C524.384 234.682 529.795 236.939 536.235 236.939C540.019 236.939 542.974 236.109 545.098 234.45C547.289 232.79 548.384 230.499 548.384 227.578C548.384 225.321 547.588 223.495 545.994 222.101C544.467 220.707 541.646 219.28 537.53 217.819C531.023 215.628 526.343 213.006 523.488 209.952C520.633 206.898 519.206 203.08 519.206 198.5C519.206 194.848 520.202 191.396 522.194 188.143C524.185 184.823 527.173 182.135 531.156 180.076C535.206 178.018 540.152 176.989 545.994 176.989ZM627.164 178.682L619.397 234.748H645.787L642.401 247.694H601.471L611.131 178.682H627.164ZM691.681 247.694L690.287 232.856H670.27L664.793 247.694H648.063L678.237 178.682H697.756L708.511 247.694H691.681ZM674.552 221.006H689.092L686.104 189.637L674.552 221.006ZM774.84 197.006C774.84 201.719 773.678 205.902 771.354 209.553C769.03 213.205 764.947 216.259 759.105 218.715L772.051 247.694H754.524L744.068 221.404L737.396 221.304L733.711 247.694H717.678L727.338 178.682H749.545C757.777 178.682 764.051 180.276 768.367 183.462C772.682 186.649 774.84 191.164 774.84 197.006ZM738.989 210.051H746.06C750.309 210.051 753.396 208.856 755.321 206.466C757.246 204.01 758.209 201.122 758.209 197.802C758.209 195.147 757.346 193.222 755.62 192.027C753.96 190.765 751.371 190.134 747.852 190.134H741.777L738.989 210.051ZM819.725 176.989C828.754 176.989 836.024 179.91 841.534 185.753L832.571 193.819C830.314 192.027 828.223 190.765 826.298 190.035C824.372 189.238 822.115 188.84 819.526 188.84C814.414 188.84 810.298 190.599 807.177 194.118C804.057 197.57 801.833 201.919 800.505 207.163C799.177 212.342 798.513 217.719 798.513 223.296C798.513 228.342 799.443 231.96 801.302 234.151C803.161 236.342 805.982 237.437 809.766 237.437C813.02 237.437 816.239 236.674 819.426 235.147L821.617 219.512H812.854L812.953 207.96H838.845L834.165 242.118C830.447 244.441 826.364 246.234 821.916 247.495C817.534 248.757 813.152 249.387 808.771 249.387C799.941 249.387 793.269 247.064 788.754 242.416C784.24 237.703 781.982 230.865 781.982 221.902C781.982 214.466 783.277 207.329 785.866 200.491C788.522 193.653 792.671 188.043 798.314 183.661C804.024 179.213 811.161 176.989 819.725 176.989ZM899.372 178.682L895.986 190.334H872.085L869.695 206.865H890.608L889.114 218.317H868.202L865.712 235.943H891.305L889.712 247.694H847.986L857.646 178.682H899.372ZM933.413 176.989C942.84 176.989 950.508 180.01 956.417 186.051L947.853 194.616C943.869 190.832 939.222 188.939 933.911 188.939C930.724 188.939 928.168 189.637 926.243 191.031C924.384 192.359 923.455 194.217 923.455 196.607C923.455 198.599 924.251 200.193 925.845 201.388C927.438 202.583 930.492 203.944 935.006 205.47C940.915 207.396 945.33 209.885 948.251 212.939C951.239 215.993 952.733 220.043 952.733 225.089C952.733 229.205 951.703 233.122 949.645 236.84C947.654 240.491 944.434 243.512 939.986 245.902C935.604 248.225 930.027 249.387 923.255 249.387C917.679 249.387 912.799 248.491 908.617 246.698C904.5 244.84 901.015 242.383 898.16 239.329L907.422 230.167C911.803 234.682 917.214 236.939 923.654 236.939C927.438 236.939 930.392 236.109 932.517 234.45C934.708 232.79 935.803 230.499 935.803 227.578C935.803 225.321 935.006 223.495 933.413 222.101C931.886 220.707 929.065 219.28 924.948 217.819C918.442 215.628 913.762 213.006 910.907 209.952C908.052 206.898 906.625 203.08 906.625 198.5C906.625 194.848 907.621 191.396 909.612 188.143C911.604 184.823 914.592 182.135 918.575 180.076C922.625 178.018 927.571 176.989 933.413 176.989ZM1016.37 178.682L1012.89 191.23H996.155L988.189 247.694H972.155L980.122 191.23H962.496L964.288 178.682H1016.37ZM1074.51 176.989C1083.94 176.989 1091.61 180.01 1097.52 186.051L1088.95 194.616C1084.97 190.832 1080.32 188.939 1075.01 188.939C1071.82 188.939 1069.27 189.637 1067.34 191.031C1065.48 192.359 1064.55 194.217 1064.55 196.607C1064.55 198.599 1065.35 200.193 1066.94 201.388C1068.54 202.583 1071.59 203.944 1076.11 205.47C1082.01 207.396 1086.43 209.885 1089.35 212.939C1092.34 215.993 1093.83 220.043 1093.83 225.089C1093.83 229.205 1092.8 233.122 1090.74 236.84C1088.75 240.491 1085.53 243.512 1081.08 245.902C1076.7 248.225 1071.13 249.387 1064.35 249.387C1058.78 249.387 1053.9 248.491 1049.72 246.698C1045.6 244.84 1042.11 242.383 1039.26 239.329L1048.52 230.167C1052.9 234.682 1058.31 236.939 1064.75 236.939C1068.54 236.939 1071.49 236.109 1073.62 234.45C1075.81 232.79 1076.9 230.499 1076.9 227.578C1076.9 225.321 1076.11 223.495 1074.51 222.101C1072.99 220.707 1070.16 219.28 1066.05 217.819C1059.54 215.628 1054.86 213.006 1052.01 209.952C1049.15 206.898 1047.72 203.08 1047.72 198.5C1047.72 194.848 1048.72 191.396 1050.71 188.143C1052.7 184.823 1055.69 182.135 1059.67 180.076C1063.72 178.018 1068.67 176.989 1074.51 176.989ZM1157.47 178.682L1153.98 191.23H1137.25L1129.29 247.694H1113.25L1121.22 191.23H1103.59L1105.39 178.682H1157.47ZM1213.36 224.889C1212.7 229.67 1211.11 233.918 1208.58 237.636C1206.13 241.288 1202.77 244.176 1198.53 246.3C1194.28 248.358 1189.3 249.387 1183.59 249.387C1175.82 249.387 1169.95 247.562 1165.96 243.91C1161.98 240.259 1159.99 235.279 1159.99 228.972C1159.99 227.512 1160.09 226.051 1160.29 224.591L1166.76 178.682H1182.79L1176.42 224.292C1176.22 225.753 1176.12 227.08 1176.12 228.275C1176.12 231.329 1176.82 233.587 1178.21 235.047C1179.6 236.508 1181.8 237.238 1184.78 237.238C1188.5 237.238 1191.36 236.143 1193.35 233.952C1195.41 231.761 1196.73 228.441 1197.33 223.993L1203.8 178.682H1219.84L1213.36 224.889ZM1254.26 178.682C1263.75 178.682 1271.32 180.608 1276.96 184.458C1282.67 188.242 1285.53 195.047 1285.53 204.873C1285.53 217.421 1282.44 227.711 1276.26 235.744C1270.16 243.711 1260.23 247.694 1246.49 247.694H1225.87L1235.53 178.682H1254.26ZM1249.97 190.533L1243.6 235.943H1248.88C1256.18 235.943 1261.36 232.856 1264.41 226.682C1267.53 220.441 1269.09 213.172 1269.09 204.873C1269.09 199.363 1267.9 195.612 1265.51 193.62C1263.12 191.562 1259.7 190.533 1255.25 190.533H1249.97ZM1345.14 178.682L1341.75 190.334H1317.85L1315.46 206.865H1336.37L1334.88 218.317H1313.97L1311.48 235.943H1337.07L1335.48 247.694H1293.75L1303.41 178.682H1345.14ZM1401.46 247.694H1381.15L1368.4 192.226C1368.53 195.811 1368.6 198.566 1368.6 200.491C1368.6 207.529 1368.03 215.097 1366.91 223.197L1363.42 247.694H1349.18L1358.84 178.682H1378.96L1392 234.151C1391.8 230.433 1391.7 226.981 1391.7 223.794C1391.7 217.952 1392.13 211.977 1393 205.869L1396.88 178.682H1411.12L1401.46 247.694ZM1474.49 178.682L1471 191.23H1454.27L1446.3 247.694H1430.27L1438.24 191.23H1420.61L1422.4 178.682H1474.49ZM1558.82 197.006C1558.82 201.719 1557.66 205.902 1555.33 209.553C1553.01 213.205 1548.93 216.259 1543.08 218.715L1556.03 247.694H1538.5L1528.05 221.404L1521.38 221.304L1517.69 247.694H1501.66L1511.32 178.682H1533.52C1541.76 178.682 1548.03 180.276 1552.35 183.462C1556.66 186.649 1558.82 191.164 1558.82 197.006ZM1522.97 210.051H1530.04C1534.29 210.051 1537.38 208.856 1539.3 206.466C1541.23 204.01 1542.19 201.122 1542.19 197.802C1542.19 195.147 1541.33 193.222 1539.6 192.027C1537.94 190.765 1535.35 190.134 1531.83 190.134H1525.76L1522.97 210.051ZM1620.52 224.889C1619.86 229.67 1618.27 233.918 1615.74 237.636C1613.29 241.288 1609.94 244.176 1605.69 246.3C1601.44 248.358 1596.46 249.387 1590.75 249.387C1582.98 249.387 1577.11 247.562 1573.12 243.91C1569.14 240.259 1567.15 235.279 1567.15 228.972C1567.15 227.512 1567.25 226.051 1567.45 224.591L1573.92 178.682H1589.95L1583.58 224.292C1583.38 225.753 1583.28 227.08 1583.28 228.275C1583.28 231.329 1583.98 233.587 1585.37 235.047C1586.77 236.508 1588.96 237.238 1591.94 237.238C1595.66 237.238 1598.52 236.143 1600.51 233.952C1602.57 231.761 1603.89 228.441 1604.49 223.993L1610.96 178.682H1627L1620.52 224.889ZM1685.32 247.694H1665L1652.25 192.226C1652.39 195.811 1652.45 198.566 1652.45 200.491C1652.45 207.529 1651.89 215.097 1650.76 223.197L1647.28 247.694H1633.04L1642.69 178.682H1662.81L1675.86 234.151C1675.66 230.433 1675.56 226.981 1675.56 223.794C1675.56 217.952 1675.99 211.977 1676.85 205.869L1680.74 178.682H1694.98L1685.32 247.694ZM1744.75 247.694H1728.72L1738.38 178.682H1754.41L1750.63 205.371H1771.05L1774.83 178.682H1790.86L1781.2 247.694H1765.17L1769.25 218.118H1748.94L1744.75 247.694ZM1833.91 247.694L1832.51 232.856H1812.5L1807.02 247.694H1790.29L1820.46 178.682H1839.98L1850.74 247.694H1833.91ZM1816.78 221.006H1831.32L1828.33 189.637L1816.78 221.006ZM1895.58 176.989C1904.28 176.989 1911.08 179.711 1915.99 185.155L1907.33 193.62C1905.47 192.093 1903.65 190.964 1901.85 190.234C1900.06 189.437 1898.04 189.039 1895.78 189.039C1891.26 189.039 1887.58 190.765 1884.72 194.217C1881.87 197.603 1879.81 201.753 1878.55 206.665C1877.36 211.512 1876.76 216.259 1876.76 220.906C1876.76 226.284 1877.82 230.267 1879.94 232.856C1882.07 235.445 1885.06 236.74 1888.91 236.74C1891.36 236.74 1893.65 236.242 1895.78 235.246C1897.97 234.25 1900.33 232.823 1902.85 230.964L1909.12 240.624C1906.2 243.213 1902.82 245.338 1898.97 246.997C1895.18 248.591 1891 249.387 1886.42 249.387C1878.38 249.387 1871.98 246.931 1867.2 242.018C1862.48 237.039 1860.13 230.001 1860.13 220.906C1860.13 214.002 1861.36 207.197 1863.81 200.491C1866.27 193.72 1870.15 188.11 1875.46 183.661C1880.77 179.213 1887.48 176.989 1895.58 176.989ZM1919.22 247.694L1928.88 178.682H1945.02L1935.36 247.694H1919.22ZM1957.76 247.694L1941.03 210.848L1966.83 178.682H1984.05L1957.66 210.649L1976.09 247.694H1957.76ZM2021.1 247.694L2019.71 232.856H1999.69L1994.22 247.694H1977.49L2007.66 178.682H2027.18L2037.93 247.694H2021.1ZM2003.98 221.006H2018.51L2015.53 189.637L2003.98 221.006ZM2098.31 178.682L2094.82 191.23H2078.09L2070.12 247.694H2054.09L2062.06 191.23H2044.43L2046.22 178.682H2098.31ZM2114.96 247.694H2098.93L2108.59 178.682H2124.62L2120.84 205.371H2141.25L2145.04 178.682H2161.07L2151.41 247.694H2135.38L2139.46 218.118H2119.15L2114.96 247.694ZM2205.51 176.989C2213.88 176.989 2220.35 179.446 2224.93 184.359C2229.51 189.271 2231.8 196.242 2231.8 205.271C2231.8 212.242 2230.64 219.08 2228.32 225.786C2225.99 232.491 2222.14 238.101 2216.76 242.616C2211.39 247.13 2204.42 249.387 2195.85 249.387C2187.42 249.387 2180.91 246.931 2176.33 242.018C2171.75 237.039 2169.46 230.068 2169.46 221.105C2169.46 214.201 2170.62 207.396 2172.95 200.69C2175.34 193.985 2179.22 188.375 2184.6 183.861C2189.98 179.28 2196.95 176.989 2205.51 176.989ZM2204.32 188.939C2199.74 188.939 2196.05 190.798 2193.26 194.516C2190.54 198.234 2188.65 202.616 2187.59 207.661C2186.52 212.707 2185.99 217.587 2185.99 222.3C2185.99 227.611 2186.89 231.462 2188.68 233.852C2190.54 236.242 2193.3 237.437 2196.95 237.437C2201.53 237.437 2205.18 235.578 2207.9 231.86C2210.69 228.143 2212.62 223.761 2213.68 218.715C2214.74 213.603 2215.27 208.657 2215.27 203.877C2215.27 198.632 2214.34 194.848 2212.48 192.524C2210.69 190.134 2207.97 188.939 2204.32 188.939ZM2292.32 247.694H2272L2259.25 192.226C2259.39 195.811 2259.45 198.566 2259.45 200.491C2259.45 207.529 2258.89 215.097 2257.76 223.197L2254.27 247.694H2240.03L2249.69 178.682H2269.81L2282.86 234.151C2282.66 230.433 2282.56 226.981 2282.56 223.794C2282.56 217.952 2282.99 211.977 2283.85 205.869L2287.74 178.682H2301.98L2292.32 247.694Z" fill="url(#paint0_linear_295_219)"/>
<path d="M1524.21 535.1H1384.06L1393.21 488.423H1511.15C1518.99 488.423 1522.25 485.594 1523.89 476.754L1530.42 443.514C1530.75 442.1 1530.75 440.685 1530.75 439.624C1530.75 435.027 1528.46 433.259 1522.25 433.259H1435.03C1417.39 433.259 1409.54 424.419 1409.54 409.567C1409.54 406.385 1409.87 403.202 1410.52 399.312L1422.61 337.43C1428.17 309.14 1439.93 295.703 1468.68 295.703H1606.21L1597.39 341.319H1480.11C1473.25 341.319 1470.64 344.148 1469 352.635L1462.8 384.107C1462.47 385.875 1462.14 387.289 1462.14 388.704C1462.14 392.594 1464.1 394.008 1469.33 394.008H1557.86C1575.83 394.008 1583.67 402.848 1583.67 418.054C1583.67 420.883 1583.35 424.419 1582.69 427.955L1569.95 493.374C1564.4 521.663 1552.31 535.1 1524.21 535.1Z" fill="url(#paint1_linear_295_219)"/>
<path d="M1312.49 535.1H1168.42L1203.05 357.232H1252.71L1245.2 395.776H1314.45C1323.93 395.776 1326.87 392.947 1328.5 384.814L1334.06 355.818C1334.71 353.342 1335.04 351.221 1335.04 349.453C1335.04 343.795 1332.1 342.027 1324.91 342.027H1206.32L1215.14 295.703H1355.94C1378.49 295.703 1387.96 304.544 1387.96 322.224C1387.96 326.468 1387.31 331.065 1386.33 336.369L1377.51 381.278C1373.59 401.08 1363.46 409.567 1348.1 411.335C1360.84 412.75 1369.67 417.7 1369.67 430.43C1369.67 432.552 1369.34 435.027 1369.01 437.503L1357.9 494.435C1352.68 521.663 1340.26 535.1 1312.49 535.1ZM1312.49 474.279L1318.7 442.807C1319.03 440.685 1319.35 438.564 1319.35 437.149C1319.35 431.138 1316.09 429.723 1308.57 429.723H1238.66L1227.23 488.07H1297.14C1307.27 488.07 1310.21 485.594 1312.49 474.279Z" fill="url(#paint2_linear_295_219)"/>
<path d="M1137.73 535.1H1012.61C990.391 535.1 981.57 526.614 981.57 508.933C981.57 504.336 981.897 499.385 983.204 493.374L1013.59 337.43C1019.14 309.14 1031.55 295.703 1059.32 295.703H1183.79L1174.65 343.441H1074.68C1064.22 343.441 1061.61 346.27 1059.65 356.878L1036.45 473.571C1036.13 475.693 1035.8 477.461 1035.8 479.229C1035.8 484.533 1038.42 486.655 1046.58 486.655H1147.2L1137.73 535.1Z" fill="url(#paint3_linear_295_219)"/>
<path d="M810.876 535.099H764.812L814.47 281.203H860.534L810.876 535.099ZM942.534 535.099H896.797L908.231 475.691C908.558 473.216 908.885 471.094 908.885 469.326C908.885 463.668 906.271 461.547 898.757 461.547H833.418L837.012 443.512L922.932 356.169H973.243L900.717 427.953H932.407C949.068 427.953 957.235 436.44 957.235 452.706C957.235 456.596 956.909 460.839 955.929 465.79L942.534 535.099Z" fill="url(#paint4_linear_295_219)"/>
<path d="M734.107 535.107H617.477C599.182 535.107 591.668 528.388 591.668 513.89C591.668 510 592.321 505.403 593.301 500.099L614.537 391.186C619.11 367.14 628.911 356.178 652.433 356.178H769.063L760.569 399.672H667.461C660.274 399.672 658.314 401.44 656.68 409.22L642.632 480.65C642.306 482.418 641.979 483.833 641.979 485.247C641.979 489.137 643.939 490.551 649.493 490.551H742.601L734.107 535.107Z" fill="url(#paint5_linear_295_219)"/>
<path d="M553.809 535.107H409.737C393.075 535.107 386.215 528.388 386.215 514.597C386.215 511.061 386.868 506.464 387.848 501.513L396.016 459.08C401.243 432.205 409.083 424.779 429.992 424.779H513.952L508.072 455.19H447.96C441.753 455.19 439.793 456.958 438.486 464.384L434.892 483.125C434.566 485.247 434.239 486.662 434.239 488.076C434.239 491.612 435.872 492.673 440.446 492.673H516.893L534.207 404.977C534.534 403.562 534.534 402.148 534.534 401.087C534.534 397.197 532.574 395.075 526.693 395.075H414.637L422.151 356.178H557.403C576.351 356.178 583.538 362.896 583.538 377.395C583.538 381.284 582.885 385.881 581.905 391.186L553.809 535.107Z" fill="url(#paint6_linear_295_219)"/>
<path d="M347.222 535.099H301.811L326.313 408.858C326.64 407.09 326.967 405.676 326.967 404.615C326.967 400.371 324.353 398.957 318.799 398.957H250.52C243.986 398.957 241.373 401.079 239.739 408.858L215.237 535.099H169.5L219.158 281.203H264.895L246.273 375.618C254.767 362.181 264.568 356.169 278.616 356.169H351.142C368.783 356.169 376.624 362.181 376.624 377.74C376.624 381.63 376.297 386.227 375.317 391.177L347.222 535.099Z" fill="url(#paint7_linear_295_219)"/>
<path d="M1568.08 616.052H1553.13L1543.76 572.07C1543.86 574.913 1543.9 577.097 1543.9 578.624C1543.9 584.204 1543.49 590.205 1542.66 596.627L1540.1 616.052H1529.62L1536.73 561.331H1551.52L1561.12 605.313C1560.97 602.365 1560.9 599.628 1560.9 597.101C1560.9 592.469 1561.22 587.731 1561.85 582.888L1564.71 561.331H1575.18L1568.08 616.052Z" fill="#DFEAF0"/>
<path d="M1500.89 561.331L1493.79 616.052H1482L1489.1 561.331H1500.89Z" fill="#DFEAF0"/>
<path d="M1457.24 561.331L1441.79 616.052H1426.48L1425.67 574.281L1413.58 616.052H1398.64L1397.54 561.331H1409.12L1408.31 606.261L1421.13 561.331H1433.58L1434.24 606.261L1445.89 561.331H1457.24Z" fill="#DFEAF0"/>
<path d="M1311.49 617.396C1309.78 617.396 1308.39 616.79 1307.32 615.58C1306.24 614.369 1305.71 612.816 1305.71 610.921C1305.71 608.815 1306.42 606.999 1307.83 605.472C1309.25 603.893 1310.96 603.104 1312.96 603.104C1314.62 603.104 1315.99 603.709 1317.06 604.92C1318.18 606.13 1318.75 607.657 1318.75 609.499C1318.75 611.658 1318.04 613.527 1316.62 615.106C1315.25 616.632 1313.54 617.396 1311.49 617.396Z" fill="#CDA3D9"/>
<path d="M1235.38 616.052L1242.48 561.331H1254.35L1247.25 616.052H1235.38ZM1263.73 616.052L1251.42 586.836L1270.39 561.331H1283.06L1263.65 586.678L1277.2 616.052H1263.73Z" fill="#CC40FF"/>
<path d="M1194.55 560.004C1200.95 560.004 1205.96 562.162 1209.57 566.479L1203.2 573.191C1201.83 571.98 1200.49 571.085 1199.17 570.506C1197.85 569.874 1196.36 569.558 1194.7 569.558C1191.38 569.558 1188.67 570.927 1186.57 573.664C1184.47 576.349 1182.96 579.639 1182.03 583.535C1181.15 587.378 1180.71 591.141 1180.71 594.826C1180.71 599.09 1181.49 602.249 1183.05 604.302C1184.62 606.355 1186.81 607.381 1189.65 607.381C1191.45 607.381 1193.14 606.987 1194.7 606.197C1196.31 605.407 1198.04 604.276 1199.9 602.802L1204.51 610.461C1202.37 612.514 1199.88 614.199 1197.04 615.515C1194.26 616.778 1191.18 617.41 1187.81 617.41C1181.91 617.41 1177.19 615.462 1173.68 611.566C1170.21 607.618 1168.48 602.038 1168.48 594.826C1168.48 589.352 1169.38 583.956 1171.19 578.639C1172.99 573.27 1175.85 568.821 1179.76 565.294C1183.66 561.767 1188.6 560.004 1194.55 560.004Z" fill="#CC40FF"/>
<path d="M1125.74 616.052L1124.72 604.287H1109.99L1105.97 616.052H1093.66L1115.85 561.331H1130.21L1138.12 616.052H1125.74ZM1113.14 594.89H1123.84L1121.64 570.017L1113.14 594.89Z" fill="#CC40FF"/>
<path d="M1036.74 616.052H1024.95L1032.05 561.331H1043.84L1041.06 582.493H1056.08L1058.86 561.331H1070.65L1063.55 616.052H1051.75L1054.76 592.6H1039.81L1036.74 616.052Z" fill="#CC40FF"/>
<path d="M942.119 617.396C940.41 617.396 939.018 616.79 937.943 615.58C936.869 614.369 936.332 612.816 936.332 610.921C936.332 608.815 937.04 606.999 938.456 605.472C939.872 603.893 941.581 603.104 943.584 603.104C945.244 603.104 946.611 603.709 947.686 604.92C948.809 606.13 949.37 607.657 949.37 609.499C949.37 611.658 948.662 613.527 947.246 615.106C945.879 616.632 944.17 617.396 942.119 617.396Z" fill="#DFEAF0"/>
<path d="M875.367 616.052H863.574L870.679 561.331H882.472L879.689 582.493H894.705L897.488 561.331H909.281L902.176 616.052H890.383L893.386 592.6H878.444L875.367 616.052Z" fill="#DFEAF0"/>
<path d="M822.748 560.004C829.145 560.004 834.151 562.162 837.764 566.479L831.392 573.191C830.024 571.98 828.681 571.085 827.363 570.506C826.045 569.874 824.555 569.558 822.895 569.558C819.574 569.558 816.864 570.927 814.764 573.664C812.664 576.349 811.151 579.639 810.223 583.535C809.344 587.378 808.904 591.141 808.904 594.826C808.904 599.09 809.686 602.249 811.248 604.302C812.811 606.355 815.008 607.381 817.841 607.381C819.647 607.381 821.332 606.987 822.895 606.197C824.506 605.407 826.24 604.276 828.095 602.802L832.71 610.461C830.562 612.514 828.071 614.199 825.239 615.515C822.455 616.778 819.379 617.41 816.01 617.41C810.101 617.41 805.388 615.462 801.873 611.566C798.405 607.618 796.672 602.038 796.672 594.826C796.672 589.352 797.575 583.956 799.382 578.639C801.189 573.27 804.046 568.821 807.952 565.294C811.859 561.767 816.791 560.004 822.748 560.004Z" fill="#DFEAF0"/>
<path d="M753.95 616.052L752.925 604.287H738.202L734.173 616.052H721.867L744.061 561.331H758.418L766.329 616.052H753.95ZM741.351 594.89H752.046L749.848 570.017L741.351 594.89Z" fill="#DFEAF0"/>
<path d="M701.163 561.331L698.673 570.57H681.093L679.335 583.677H694.718L693.619 592.758H678.237L676.405 606.735H695.23L694.058 616.052H663.367L670.472 561.331H701.163Z" fill="#DFEAF0"/>
<path d="M639.467 561.331L636.904 571.28H624.598L618.738 616.052H606.945L612.805 571.28H599.84L601.158 561.331H639.467Z" fill="#DFEAF0"/>
<path d="M515.326 617.396C513.617 617.396 512.225 616.79 511.151 615.58C510.076 614.369 509.539 612.816 509.539 610.921C509.539 608.815 510.247 606.999 511.663 605.472C513.079 603.893 514.789 603.104 516.791 603.104C518.451 603.104 519.818 603.709 520.893 604.92C522.016 606.13 522.577 607.657 522.577 609.499C522.577 611.658 521.869 613.527 520.453 615.106C519.086 616.632 517.377 617.396 515.326 617.396Z" fill="#CDA3D9"/>
<path d="M475.381 616.052H460.439L451.063 572.07C451.16 574.913 451.209 577.097 451.209 578.624C451.209 584.204 450.794 590.205 449.964 596.627L447.4 616.052H436.926L444.031 561.331H458.827L468.423 605.313C468.276 602.365 468.203 599.628 468.203 597.101C468.203 592.469 468.52 587.731 469.155 582.888L472.012 561.331H482.486L475.381 616.052Z" fill="#CC40FF"/>
<path d="M408.111 575.86C408.111 579.598 407.256 582.914 405.547 585.809C403.838 588.705 400.835 591.126 396.538 593.074L406.06 616.052H393.168L385.477 595.206L380.57 595.127L377.859 616.052H366.066L373.172 561.331H389.506C395.561 561.331 400.176 562.594 403.35 565.121C406.524 567.648 408.111 571.228 408.111 575.86ZM381.742 586.204H386.942C390.068 586.204 392.338 585.257 393.754 583.362C395.17 581.414 395.879 579.124 395.879 576.492C395.879 574.386 395.244 572.86 393.974 571.912C392.753 570.912 390.849 570.412 388.261 570.412H383.793L381.742 586.204Z" fill="#CC40FF"/>
<path d="M323.497 616.052L322.471 604.287H307.748L303.72 616.052H291.414L313.608 561.331H327.965L335.876 616.052H323.497ZM310.898 594.89H321.592L319.395 570.017L310.898 594.89Z" fill="#CC40FF"/>
<path d="M270.726 561.331L268.235 570.57H250.656L248.898 583.677H264.28L263.181 592.758H247.799L245.968 606.735H264.793L263.621 616.052H232.93L240.035 561.331H270.726Z" fill="#CC40FF"/>
<path d="M188.398 561.331L182.685 605.787H202.096L199.605 616.052H169.5L176.605 561.331H188.398Z" fill="#CC40FF"/>
<mask id="path-29-outside-1_295_219" maskUnits="userSpaceOnUse" x="1637.15" y="299.306" width="656" height="304" fill="black">
<rect fill="white" x="1637.15" y="299.306" width="656" height="304"/>
<path d="M1817.19 590.306H1689.43C1661.5 590.306 1650 580.447 1650 559.907C1650 554.978 1650.82 549.227 1652.05 543.065L1666.02 476.929C1670.54 455.979 1686.15 448.174 1705.45 446.53C1689.84 444.887 1680.4 437.904 1680.4 422.294C1680.4 419.008 1680.81 415.722 1681.63 411.614L1692.72 359.444C1699.29 327.813 1716.55 312.203 1751.46 312.203H1872.64C1901.4 312.203 1913.31 322.473 1913.31 343.423C1913.31 348.353 1912.9 353.693 1911.67 359.444L1900.58 411.614C1895.65 434.618 1881.68 444.477 1861.96 446.53C1877.98 448.174 1889.08 453.925 1889.08 468.713C1889.08 471.178 1888.66 474.053 1888.25 476.929L1874.29 543.065C1867.71 574.696 1852.52 590.306 1817.19 590.306ZM1843.48 415.722L1851.69 376.286C1852.1 373.821 1852.52 372.178 1852.52 370.535C1852.52 364.373 1848.82 362.319 1840.19 362.319H1762.55C1751.46 362.319 1747.35 365.606 1745.3 376.286L1737.08 415.722C1736.67 417.775 1736.26 419.419 1736.26 421.062C1736.26 426.402 1739.55 428.456 1748.18 428.456H1826.64C1837.73 428.456 1841.42 425.17 1843.48 415.722ZM1821.3 524.169L1830.33 480.215C1830.74 478.572 1830.74 476.929 1830.74 475.696C1830.74 469.945 1827.46 467.891 1818.42 467.891H1739.96C1728.87 467.891 1723.94 471.178 1722.3 480.215L1713.26 524.169C1712.85 526.634 1712.44 528.688 1712.44 530.331C1712.44 536.493 1716.13 538.957 1724.76 538.957H1803.22C1813.9 538.957 1819.24 534.85 1821.3 524.169ZM1961.19 590.306H1908.61L1921.76 528.277H1974.34L1961.19 590.306ZM2182.71 590.306H2052.08C2024.15 590.306 2012.65 580.447 2012.65 560.318C2012.65 554.978 2013.47 548.816 2015.11 541.833L2053.31 360.676C2060.3 327.813 2075.5 312.203 2110.82 312.203H2241.45C2269.39 312.203 2280.48 322.062 2280.48 342.602C2280.48 347.942 2279.66 353.693 2278.42 360.676L2240.22 541.833C2233.24 574.696 2218.04 590.306 2182.71 590.306ZM2185.59 520.883L2215.16 382.448C2215.57 379.572 2215.98 377.518 2215.98 375.464C2215.98 368.481 2212.29 366.016 2202.02 366.016H2125.2C2114.11 366.016 2110 370.124 2107.54 382.037L2077.96 520.883C2077.55 522.937 2077.14 524.991 2077.14 526.634C2077.14 532.385 2080.42 534.85 2089.05 534.85H2165.87C2179.01 534.85 2183.53 530.742 2185.59 520.883Z"/>
</mask>
<path d="M1652.05 543.065L1639.87 540.493L1639.86 540.559L1639.85 540.624L1652.05 543.065ZM1666.02 476.929L1653.85 474.304L1653.84 474.33L1653.84 474.357L1666.02 476.929ZM1705.45 446.53L1706.51 458.934L1706.76 434.151L1705.45 446.53ZM1681.63 411.614L1669.45 409.025L1669.44 409.099L1669.42 409.172L1681.63 411.614ZM1692.72 359.444L1704.9 362.032L1704.9 362.004L1704.91 361.976L1692.72 359.444ZM1911.67 359.444L1899.5 356.836L1899.49 356.845L1899.49 356.855L1911.67 359.444ZM1900.58 411.614L1912.75 414.222L1912.75 414.212L1912.75 414.202L1900.58 411.614ZM1861.96 446.53L1860.67 434.149L1860.69 458.914L1861.96 446.53ZM1888.25 476.929L1900.43 479.501L1900.52 479.097L1900.58 478.689L1888.25 476.929ZM1874.29 543.065L1862.11 540.493L1862.1 540.513L1862.1 540.533L1874.29 543.065ZM1843.48 415.721L1855.64 418.366L1855.65 418.313L1855.66 418.26L1843.48 415.721ZM1851.69 376.286L1863.88 378.825L1863.93 378.58L1863.97 378.332L1851.69 376.286ZM1745.3 376.286L1757.49 378.825L1757.51 378.731L1757.52 378.637L1745.3 376.286ZM1737.08 415.721L1724.9 413.183L1724.89 413.231L1724.88 413.28L1737.08 415.721ZM1821.3 524.169L1809.1 521.662L1809.09 521.74L1809.07 521.818L1821.3 524.169ZM1830.33 480.215L1818.26 477.196L1818.19 477.451L1818.14 477.708L1830.33 480.215ZM1722.3 480.215L1734.49 482.722L1734.52 482.582L1734.54 482.442L1722.3 480.215ZM1713.26 524.169L1701.07 521.662L1701.02 521.892L1700.98 522.123L1713.26 524.169ZM1817.19 590.306V577.858H1689.43V590.306V602.754H1817.19V590.306ZM1689.43 590.306V577.858C1676.47 577.858 1670.04 575.48 1666.96 573.043C1664.55 571.141 1662.45 567.812 1662.45 559.907H1650H1637.55C1637.55 572.542 1641.19 584.413 1651.52 592.575C1661.17 600.202 1674.46 602.754 1689.43 602.754V590.306ZM1650 559.907H1662.45C1662.45 556.197 1663.08 551.385 1664.26 545.507L1652.05 543.065L1639.85 540.624C1638.56 547.069 1637.55 553.759 1637.55 559.907H1650ZM1652.05 543.065L1664.23 545.637L1678.2 479.501L1666.02 476.929L1653.84 474.357L1639.87 540.493L1652.05 543.065ZM1666.02 476.929L1678.19 479.553C1679.83 471.93 1683.19 467.56 1687.29 464.716C1691.73 461.634 1698.07 459.652 1706.51 458.934L1705.45 446.53L1704.4 434.127C1693.53 435.052 1682.41 437.794 1673.09 444.263C1663.43 450.97 1656.72 460.977 1653.85 474.304L1666.02 476.929ZM1705.45 446.53L1706.76 434.151C1700.26 433.467 1696.98 431.832 1695.42 430.419C1694.27 429.379 1692.84 427.407 1692.84 422.294H1680.4H1667.95C1667.95 432.791 1671.24 442.116 1678.72 448.88C1685.78 455.272 1695.04 457.951 1704.15 458.91L1705.45 446.53ZM1680.4 422.294H1692.84C1692.84 420.106 1693.11 417.688 1693.83 414.055L1681.63 411.614L1669.42 409.172C1668.51 413.755 1667.95 417.91 1667.95 422.294H1680.4ZM1681.63 411.614L1693.8 414.202L1704.9 362.032L1692.72 359.444L1680.54 356.855L1669.45 409.025L1681.63 411.614ZM1692.72 359.444L1704.91 361.976C1707.86 347.787 1712.83 338.985 1719.4 333.555C1725.93 328.147 1735.79 324.651 1751.46 324.651V312.203V299.755C1732.22 299.755 1715.99 304.065 1703.53 314.37C1691.1 324.652 1684.16 339.47 1680.53 356.911L1692.72 359.444ZM1751.46 312.203V324.651H1872.64V312.203V299.755H1751.46V312.203ZM1872.64 312.203V324.651C1885.99 324.651 1892.74 327.12 1896.05 329.729C1898.69 331.81 1900.86 335.369 1900.86 343.423H1913.31H1925.76C1925.76 330.527 1921.98 318.476 1911.47 310.185C1901.63 302.422 1888.06 299.755 1872.64 299.755V312.203ZM1913.31 343.423H1900.86C1900.86 347.645 1900.51 352.093 1899.5 356.836L1911.67 359.444L1923.84 362.052C1925.29 355.293 1925.76 349.06 1925.76 343.423H1913.31ZM1911.67 359.444L1899.49 356.855L1888.4 409.025L1900.58 411.614L1912.75 414.202L1923.84 362.032L1911.67 359.444ZM1900.58 411.614L1888.41 409.005C1886.38 418.448 1882.8 424.001 1878.75 427.451C1874.62 430.965 1868.83 433.3 1860.67 434.149L1861.96 446.53L1863.25 458.912C1874.82 457.707 1885.87 454.085 1894.89 446.406C1903.98 438.662 1909.84 427.783 1912.75 414.222L1900.58 411.614ZM1861.96 446.53L1860.69 458.914C1867.89 459.652 1872.05 461.182 1874.18 462.741C1875.52 463.717 1876.63 464.991 1876.63 468.713H1889.08H1901.52C1901.52 457.647 1897.09 448.651 1888.87 442.644C1881.46 437.219 1872.06 435.052 1863.23 434.147L1861.96 446.53ZM1889.08 468.713H1876.63C1876.63 470.113 1876.38 472.039 1875.93 475.168L1888.25 476.929L1900.58 478.689C1900.95 476.067 1901.52 472.243 1901.52 468.713H1889.08ZM1888.25 476.929L1876.07 474.357L1862.11 540.493L1874.29 543.065L1886.47 545.637L1900.43 479.501L1888.25 476.929ZM1874.29 543.065L1862.1 540.533C1859.08 555.085 1854.47 563.837 1848.35 569.152C1842.38 574.349 1833.1 577.858 1817.19 577.858V590.306V602.754C1836.6 602.754 1852.59 598.457 1864.69 587.941C1876.65 577.545 1882.93 562.676 1886.48 545.598L1874.29 543.065ZM1843.48 415.721L1855.66 418.26L1863.88 378.825L1851.69 376.286L1839.51 373.747L1831.29 413.183L1843.48 415.721ZM1851.69 376.286L1863.97 378.332C1864.16 377.223 1864.96 373.552 1864.96 370.535H1852.52H1840.07C1840.07 370.34 1840.09 370.376 1839.98 371.056C1839.92 371.399 1839.85 371.775 1839.75 372.339C1839.65 372.869 1839.54 373.518 1839.42 374.24L1851.69 376.286ZM1852.52 370.535H1864.96C1864.96 364.701 1862.97 357.911 1856.31 353.637C1851.08 350.284 1844.82 349.871 1840.19 349.871V362.319V374.767C1841.92 374.767 1842.95 374.876 1843.49 374.976C1844.05 375.08 1843.65 375.094 1842.87 374.596C1842.46 374.33 1841.98 373.945 1841.52 373.421C1841.06 372.894 1840.71 372.334 1840.47 371.803C1840 370.777 1840.07 370.174 1840.07 370.535H1852.52ZM1840.19 362.319V349.871H1762.55V362.319V374.767H1840.19V362.319ZM1762.55 362.319V349.871C1756.26 349.871 1748.81 350.69 1742.72 355.614C1736.55 360.598 1734.27 367.741 1733.08 373.935L1745.3 376.286L1757.52 378.637C1758.39 374.151 1759.19 374.31 1758.36 374.981C1757.97 375.294 1757.8 375.241 1758.38 375.103C1759.05 374.942 1760.32 374.767 1762.55 374.767V362.319ZM1745.3 376.286L1733.11 373.747L1724.9 413.183L1737.08 415.721L1749.27 418.26L1757.49 378.825L1745.3 376.286ZM1737.08 415.721L1724.88 413.28C1724.65 414.42 1723.82 417.819 1723.82 421.062H1736.26H1748.71C1748.71 421.26 1748.69 421.232 1748.78 420.709C1748.82 420.45 1748.89 420.139 1748.98 419.697C1749.06 419.308 1749.18 418.716 1749.29 418.163L1737.08 415.721ZM1736.26 421.062H1723.82C1723.82 426.656 1725.82 433.237 1732.41 437.333C1737.48 440.483 1743.53 440.904 1748.18 440.904V428.456V416.008C1746.45 416.008 1745.43 415.9 1744.9 415.803C1744.34 415.703 1744.75 415.691 1745.56 416.189C1746.53 416.797 1747.54 417.826 1748.18 419.181C1748.74 420.369 1748.71 421.18 1748.71 421.062H1736.26ZM1748.18 428.456V440.904H1826.64V428.456V416.008H1748.18V428.456ZM1826.64 428.456V440.904C1832.94 440.904 1840.16 440.079 1846.1 435.447C1852.18 430.703 1854.43 423.923 1855.64 418.366L1843.48 415.721L1831.31 413.077C1830.47 416.968 1829.84 416.555 1830.79 415.816C1831.21 415.489 1831.39 415.541 1830.81 415.677C1830.14 415.834 1828.87 416.008 1826.64 416.008V428.456ZM1821.3 524.169L1833.49 526.676L1842.53 482.722L1830.33 480.215L1818.14 477.708L1809.1 521.662L1821.3 524.169ZM1830.33 480.215L1842.41 483.234C1843.24 479.903 1843.19 476.799 1843.19 475.696H1830.74H1818.3C1818.3 476.344 1818.29 476.672 1818.27 476.973C1818.25 477.253 1818.23 477.3 1818.26 477.196L1830.33 480.215ZM1830.74 475.696H1843.19C1843.19 470.216 1841.39 463.392 1834.62 459.112C1829.43 455.834 1823.16 455.443 1818.42 455.443V467.891V480.339C1820.28 480.339 1821.38 480.45 1821.97 480.556C1822.58 480.665 1822.15 480.685 1821.32 480.162C1820.88 479.88 1820.36 479.468 1819.86 478.902C1819.36 478.332 1818.99 477.725 1818.73 477.147C1818.24 476.042 1818.3 475.363 1818.3 475.696H1830.74ZM1818.42 467.891V455.443H1739.96V467.891V480.339H1818.42V467.891ZM1739.96 467.891V455.443C1733.59 455.443 1726.48 456.301 1720.51 460.423C1714.01 464.916 1711.21 471.581 1710.05 477.988L1722.3 480.215L1734.54 482.442C1734.79 481.085 1735.06 480.55 1735.1 480.466C1735.12 480.438 1735.08 480.506 1734.98 480.619C1734.88 480.735 1734.76 480.835 1734.66 480.906C1734.45 481.05 1734.57 480.892 1735.42 480.705C1736.31 480.509 1737.75 480.339 1739.96 480.339V467.891ZM1722.3 480.215L1710.1 477.708L1701.07 521.662L1713.26 524.169L1725.45 526.676L1734.49 482.722L1722.3 480.215ZM1713.26 524.169L1700.98 522.123C1700.71 523.739 1699.99 527.341 1699.99 530.331H1712.44H1724.89C1724.89 530.445 1724.88 530.246 1725 529.405C1725.14 528.497 1725.29 527.715 1725.54 526.216L1713.26 524.169ZM1712.44 530.331H1699.99C1699.99 536.113 1701.92 542.788 1708.28 547.189C1713.52 550.819 1719.84 551.405 1724.76 551.405V538.957V526.509C1723.14 526.509 1722.2 526.388 1721.75 526.293C1721.3 526.199 1721.71 526.209 1722.45 526.72C1722.83 526.987 1723.26 527.355 1723.65 527.835C1724.05 528.316 1724.35 528.815 1724.55 529.278C1724.94 530.177 1724.89 530.677 1724.89 530.331H1712.44ZM1724.76 538.957V551.405H1803.22V538.957V526.509H1724.76V538.957ZM1803.22 538.957V551.405C1809.96 551.405 1817.26 550.141 1823.31 545.255C1829.42 540.327 1832.2 533.382 1833.52 526.52L1821.3 524.169L1809.07 521.818C1808.34 525.637 1807.42 526.085 1807.68 525.881C1807.88 525.72 1807.17 526.509 1803.22 526.509V538.957ZM1961.19 590.306V602.754H1971.28L1973.37 592.886L1961.19 590.306ZM1908.61 590.306L1896.43 587.725L1893.25 602.754H1908.61V590.306ZM1921.76 528.277V515.829H1911.67L1909.58 525.696L1921.76 528.277ZM1974.34 528.277L1986.51 530.858L1989.7 515.829H1974.34V528.277ZM1961.19 590.306V577.858H1908.61V590.306V602.754H1961.19V590.306ZM1908.61 590.306L1920.79 592.886L1933.93 530.858L1921.76 528.277L1909.58 525.696L1896.43 587.725L1908.61 590.306ZM1921.76 528.277V540.725H1974.34V528.277V515.829H1921.76V528.277ZM1974.34 528.277L1962.16 525.696L1949.01 587.725L1961.19 590.306L1973.37 592.886L1986.51 530.858L1974.34 528.277ZM2015.11 541.833L2027.23 544.684L2027.26 544.543L2027.29 544.401L2015.11 541.833ZM2053.31 360.676L2041.14 358.089L2041.13 358.098L2041.13 358.108L2053.31 360.676ZM2278.42 360.676L2290.6 363.245L2290.65 363.043L2290.68 362.839L2278.42 360.676ZM2240.22 541.833L2252.4 544.42L2252.4 544.411L2252.4 544.401L2240.22 541.833ZM2185.59 520.883L2173.41 518.282L2173.41 518.313L2173.4 518.344L2185.59 520.883ZM2215.16 382.448L2227.34 385.049L2227.43 384.631L2227.49 384.208L2215.16 382.448ZM2107.54 382.037L2119.71 384.63L2119.72 384.595L2119.73 384.559L2107.54 382.037ZM2077.96 520.883L2065.79 518.289L2065.77 518.365L2065.75 518.442L2077.96 520.883ZM2182.71 590.306V577.858H2052.08V590.306V602.754H2182.71V590.306ZM2052.08 590.306V577.858C2039.12 577.858 2032.66 575.483 2029.56 573.056C2027.15 571.173 2025.09 567.938 2025.09 560.318H2012.65H2000.2C2000.2 572.827 2003.89 584.586 2014.22 592.665C2023.85 600.198 2037.1 602.754 2052.08 602.754V590.306ZM2012.65 560.318H2025.09C2025.09 556.201 2025.73 551.03 2027.23 544.684L2015.11 541.833L2002.99 538.982C2001.2 546.603 2000.2 553.755 2000.2 560.318H2012.65ZM2015.11 541.833L2027.29 544.401L2065.49 363.245L2053.31 360.676L2041.13 358.108L2002.93 539.264L2015.11 541.833ZM2053.31 360.676L2065.49 363.264C2068.73 347.995 2073.47 338.918 2079.67 333.455C2085.68 328.155 2094.92 324.651 2110.82 324.651V312.203V299.755C2091.4 299.755 2075.37 304.057 2063.21 314.778C2051.23 325.335 2044.88 340.495 2041.14 358.089L2053.31 360.676ZM2110.82 312.203V324.651H2241.45V312.203V299.755H2110.82V312.203ZM2241.45 312.203V324.651C2254.43 324.651 2260.69 327.035 2263.64 329.405C2265.95 331.253 2268.03 334.562 2268.03 342.602H2280.48H2292.93C2292.93 330.102 2289.46 318.212 2279.24 309.995C2269.66 302.302 2256.41 299.755 2241.45 299.755V312.203ZM2280.48 342.602H2268.03C2268.03 346.773 2267.38 351.605 2266.17 358.513L2278.42 360.676L2290.68 362.839C2291.93 355.78 2292.93 349.111 2292.93 342.602H2280.48ZM2278.42 360.676L2266.24 358.108L2228.04 539.264L2240.22 541.833L2252.4 544.401L2290.6 363.245L2278.42 360.676ZM2240.22 541.833L2228.04 539.245C2224.8 554.514 2220.06 563.591 2213.86 569.054C2207.85 574.354 2198.62 577.858 2182.71 577.858V590.306V602.754C2202.13 602.754 2218.16 598.452 2230.33 587.732C2242.3 577.174 2248.66 562.014 2252.4 544.42L2240.22 541.833ZM2185.59 520.883L2197.76 523.484L2227.34 385.049L2215.16 382.448L2202.99 379.847L2173.41 518.282L2185.59 520.883ZM2215.16 382.448L2227.49 384.208C2227.76 382.296 2228.43 378.693 2228.43 375.464H2215.98H2203.54C2203.54 376.344 2203.39 376.849 2202.84 380.687L2215.16 382.448ZM2215.98 375.464H2228.43C2228.43 369.729 2226.77 362.493 2219.81 357.801C2214.26 354.058 2207.41 353.568 2202.02 353.568V366.016V378.464C2204.16 378.464 2205.47 378.599 2206.21 378.74C2206.96 378.883 2206.63 378.94 2205.89 378.442C2205.5 378.175 2205.05 377.794 2204.64 377.289C2204.23 376.784 2203.94 376.276 2203.76 375.843C2203.43 375.039 2203.54 374.728 2203.54 375.464H2215.98ZM2202.02 366.016V353.568H2125.2V366.016V378.464H2202.02V366.016ZM2125.2 366.016V353.568C2118.37 353.568 2110.77 354.789 2104.68 360.419C2098.97 365.698 2096.7 372.996 2095.35 379.515L2107.54 382.037L2119.73 384.559C2120.25 382.041 2120.75 380.478 2121.17 379.514C2121.57 378.613 2121.77 378.529 2121.58 378.7C2120.94 379.297 2120.94 378.464 2125.2 378.464V366.016ZM2107.54 382.037L2095.36 379.444L2065.79 518.289L2077.96 520.883L2090.14 523.476L2119.71 384.63L2107.54 382.037ZM2077.96 520.883L2065.75 518.442C2065.43 520.076 2064.69 523.488 2064.69 526.634H2077.14H2089.59C2089.59 526.753 2089.58 526.557 2089.69 525.854C2089.8 525.174 2089.95 524.403 2090.17 523.324L2077.96 520.883ZM2077.14 526.634H2064.69C2064.69 532.029 2066.4 538.656 2072.7 543.083C2077.88 546.721 2084.15 547.298 2089.05 547.298V534.85V522.401C2087.43 522.401 2086.52 522.28 2086.12 522.195C2085.72 522.11 2086.21 522.144 2087.02 522.713C2087.97 523.38 2088.77 524.371 2089.24 525.466C2089.64 526.405 2089.59 526.946 2089.59 526.634H2077.14ZM2089.05 534.85V547.298H2165.87V534.85V522.401H2089.05V534.85ZM2165.87 534.85V547.298C2173.33 547.298 2181.05 546.221 2187.33 541.542C2193.92 536.627 2196.49 529.587 2197.77 523.422L2185.59 520.883L2173.4 518.344C2172.63 522.037 2171.91 521.98 2172.44 521.585C2172.66 521.424 2171.56 522.401 2165.87 522.401V534.85Z" fill="#CC40FF" mask="url(#path-29-outside-1_295_219)"/>
<defs>
<linearGradient id="paint0_linear_295_219" x1="240.5" y1="215" x2="2302.83" y2="214.694" gradientUnits="userSpaceOnUse">
<stop offset="0.0207207" stop-color="#CC40FF"/>
<stop offset="1" stop-color="#F2BFFF"/>
</linearGradient>
<linearGradient id="paint1_linear_295_219" x1="104.756" y1="579.196" x2="1684.78" y2="348.092" gradientUnits="userSpaceOnUse">
<stop offset="0.331731" stop-color="#E8F1F5"/>
<stop offset="0.605769" stop-color="#E8F1F5"/>
<stop offset="0.860577" stop-color="#E1BDE4"/>
<stop offset="1" stop-color="#D989D3"/>
</linearGradient>
<linearGradient id="paint2_linear_295_219" x1="493.853" y1="503.204" x2="1474.67" y2="418.552" gradientUnits="userSpaceOnUse">
<stop stop-color="#E8F1F5"/>
<stop offset="0.524038" stop-color="#E8F1F5"/>
<stop offset="1" stop-color="#CDA3D9"/>
</linearGradient>
<linearGradient id="paint3_linear_295_219" x1="945.656" y1="392.146" x2="1179.7" y2="450.504" gradientUnits="userSpaceOnUse">
<stop stop-color="#E8F1F5"/>
<stop offset="0.0001" stop-color="#E8F1F5"/>
<stop offset="0.865385" stop-color="#E1BDE4"/>
</linearGradient>
<linearGradient id="paint4_linear_295_219" x1="104.75" y1="579.194" x2="1320.51" y2="393.563" gradientUnits="userSpaceOnUse">
<stop stop-color="#E8F1F5"/>
<stop offset="0.0001" stop-color="#E8F1F5"/>
<stop offset="1" stop-color="#E2CBEB"/>
</linearGradient>
<linearGradient id="paint5_linear_295_219" x1="104.751" y1="579.202" x2="1684.77" y2="348.099" gradientUnits="userSpaceOnUse">
<stop stop-color="#E8F1F5"/>
<stop offset="0.0001" stop-color="#E8F1F5"/>
<stop offset="1" stop-color="#8F9199"/>
</linearGradient>
<linearGradient id="paint6_linear_295_219" x1="104.75" y1="579.202" x2="1684.77" y2="348.099" gradientUnits="userSpaceOnUse">
<stop stop-color="#E8F1F5"/>
<stop offset="0.0001" stop-color="#E8F1F5"/>
<stop offset="1" stop-color="#8F9199"/>
</linearGradient>
<linearGradient id="paint7_linear_295_219" x1="104.753" y1="579.194" x2="1684.78" y2="348.091" gradientUnits="userSpaceOnUse">
<stop stop-color="#E8F1F5"/>
<stop offset="0.0001" stop-color="#E8F1F5"/>
<stop offset="1" stop-color="#8F9199"/>
</linearGradient>
</defs>
</svg>
